<?xml version="1.0" encoding="UTF-8" standalone="no"?>
<!-- Created with Inkscape (http://www.inkscape.org/) -->

<svg
   width="34.924957mm"
   height="34.924957mm"
   viewBox="0 0 34.924957 34.924957"
   version="1.1"
   id="svg5"
   sodipodi:docname="qr-whova.svg"
   inkscape:version="1.1.2 (1:1.1+202202050950+0a00cf5339)"
   xmlns:inkscape="http://www.inkscape.org/namespaces/inkscape"
   xmlns:sodipodi="http://sodipodi.sourceforge.net/DTD/sodipodi-0.dtd"
   xmlns="http://www.w3.org/2000/svg"
   xmlns:svg="http://www.w3.org/2000/svg">
  <sodipodi:namedview
     id="namedview7"
     pagecolor="#ffffff"
     bordercolor="#666666"
     borderopacity="1.0"
     inkscape:pageshadow="2"
     inkscape:pageopacity="0.0"
     inkscape:pagecheckerboard="0"
     inkscape:document-units="mm"
     showgrid="false"
     inkscape:zoom="2.2375094"
     inkscape:cx="-94.524743"
     inkscape:cy="133.63072"
     inkscape:window-width="1872"
     inkscape:window-height="1051"
     inkscape:window-x="48"
     inkscape:window-y="0"
     inkscape:window-maximized="1"
     inkscape:current-layer="g954" />
  <defs
     id="defs2" />
  <g
     inkscape:label="Layer 1"
     inkscape:groupmode="layer"
     id="layer1"
     transform="translate(-164.45317,-162.92527)">
    <g
       inkscape:label="QR Code: https://whova.com/portal/webapp/ibcj_202306/Agenda/3127551"
       transform="matrix(0.264583,0,0,0.264583,123.344,164.504)"
       id="g954">
      <g
         style="fill:#000000;stroke:none"
         id="g952"
         transform="translate(139.37344,-21.966847)">
        <path
           d="m 143.6,148 h -3.2 c -0.22091,0 -0.4,-0.17909 -0.4,-0.4 v -3.2 c 0,-0.22091 0.17909,-0.4 0.4,-0.4 h 3.2 c 0.22091,0 0.4,0.17909 0.4,0.4 v 3.2 c 0,0.22091 -0.17909,0.4 -0.4,0.4 z m -8,0 h -3.2 c -0.22091,0 -0.4,-0.17909 -0.4,-0.4 v -3.2 c 0,-0.22091 0.17909,-0.4 0.4,-0.4 h 3.2 c 0.22091,0 0.4,0.17909 0.4,0.4 v 3.2 c 0,0.22091 -0.17909,0.4 -0.4,0.4 z m -8,0 h -15.2 c -0.22091,0 -0.4,-0.17909 -0.4,-0.4 v -47.2 c 0,-0.22091 -0.17909,-0.4 -0.4,-0.4 h -3.2 c -0.22091,0 -0.4,-0.179086 -0.4,-0.4 v -7.2 c 0,-0.220914 0.17909,-0.4 0.4,-0.4 h 3.2 c 0.22091,0 0.4,0.179086 0.4,0.4 v 3.2 c 0,0.220914 0.17909,0.4 0.4,0.4 h 3.2 c 0.22091,0 0.4,-0.179086 0.4,-0.4 v -7.2 c 0,-0.220914 -0.17909,-0.4 -0.4,-0.4 h -7.2 C 108.17909,88 108,87.820914 108,87.6 V 76.4 C 108,76.179086 107.82091,76 107.6,76 H 104 v -4 h 15.6 c 0.22091,0 0.4,-0.179086 0.4,-0.4 v -3.2 c 0,-0.220914 -0.17909,-0.4 -0.4,-0.4 h -11.2 c -0.22091,0 -0.4,-0.179086 -0.4,-0.4 v -7.2 c 0,-0.220914 0.17909,-0.4 0.4,-0.4 h 7.2 c 0.22091,0 0.4,0.179086 0.4,0.4 v 3.2 c 0,0.220914 0.17909,0.4 0.4,0.4 h 7.6 v 11.6 c 0,0.220914 -0.17909,0.4 -0.4,0.4 h -7.2 c -0.22091,0 -0.4,0.179086 -0.4,0.4 v 3.2 c 0,0.220914 0.17909,0.4 0.4,0.4 h 7.2 c 0.22091,0 0.4,0.179086 0.4,0.4 V 84 h -3.6 c -0.22091,0 -0.4,0.179086 -0.4,0.4 v 7.2 c 0,0.220914 0.17909,0.4 0.4,0.4 h 3.2 c 0.22091,0 0.4,-0.179086 0.4,-0.4 V 84 h 4 v 3.6 c 0,0.220914 0.17909,0.4 0.4,0.4 h 3.2 c 0.22091,0 0.4,-0.179086 0.4,-0.4 V 84 h 7.6 c 0.22091,0 0.4,0.179086 0.4,0.4 V 88 h -3.6 c -0.22091,0 -0.4,0.179086 -0.4,0.4 V 100 h -3.6 c -0.22091,0 -0.4,-0.179086 -0.4,-0.4 v -3.2 c 0,-0.220914 -0.17909,-0.4 -0.4,-0.4 h -11.2 c -0.22091,0 -0.4,0.179086 -0.4,0.4 v 3.6 h -3.6 c -0.22091,0 -0.4,0.17909 -0.4,0.4 v 3.2 c 0,0.22091 0.17909,0.4 0.4,0.4 h 3.2 c 0.22091,0 0.4,-0.17909 0.4,-0.4 V 100 h 3.6 c 0.22091,0 0.4,0.17909 0.4,0.4 v 11.2 c 0,0.22091 0.17909,0.4 0.4,0.4 h 7.2 c 0.22091,0 0.4,-0.17909 0.4,-0.4 v -3.2 c 0,-0.22091 -0.17909,-0.4 -0.4,-0.4 h -3.2 c -0.22091,0 -0.4,-0.17909 -0.4,-0.4 v -3.2 c 0,-0.22091 0.17909,-0.4 0.4,-0.4 h 7.6 v 11.6 c 0,0.22091 -0.17909,0.4 -0.4,0.4 h -3.2 c -0.22091,0 -0.4,0.17909 -0.4,0.4 v 23.2 c 0,0.22091 -0.17909,0.4 -0.4,0.4 H 124 v -4 h 3.6 c 0.22091,0 0.4,-0.17909 0.4,-0.4 v -3.2 c 0,-0.22091 -0.17909,-0.4 -0.4,-0.4 h -3.2 c -0.22091,0 -0.4,0.17909 -0.4,0.4 v 3.6 h -3.6 c -0.22091,0 -0.4,-0.17909 -0.4,-0.4 v -3.2 c 0,-0.22091 -0.17909,-0.4 -0.4,-0.4 h -3.2 c -0.22091,0 -0.4,0.17909 -0.4,0.4 v 7.2 c 0,0.22091 0.17909,0.4 0.4,0.4 h 7.6 v 3.6 c 0,0.22091 0.17909,0.4 0.4,0.4 h 3.2 c 0.22091,0 0.4,0.17909 0.4,0.4 v 3.2 c 0,0.22091 -0.17909,0.4 -0.4,0.4 z m -24,0 h -3.2 c -0.22091,0 -0.4,-0.17909 -0.4,-0.4 v -7.2 c 0,-0.22091 -0.179086,-0.4 -0.4,-0.4 H 96 v -4 h 3.6 c 0.220914,0 0.4,-0.17909 0.4,-0.4 v -7.2 c 0,-0.22091 -0.179086,-0.4 -0.4,-0.4 H 96.4 C 96.179086,128 96,127.82091 96,127.6 V 120 h 3.6 c 0.220914,0 0.4,-0.17909 0.4,-0.4 v -7.2 c 0,-0.22091 -0.179086,-0.4 -0.4,-0.4 h -3.2 c -0.220914,0 -0.4,-0.17909 -0.4,-0.4 v -3.2 c 0,-0.22091 -0.179086,-0.4 -0.4,-0.4 h -3.2 c -0.220914,0 -0.4,-0.17909 -0.4,-0.4 v -3.2 c 0,-0.22091 0.179086,-0.4 0.4,-0.4 h 7.2 c 0.220914,0 0.4,0.17909 0.4,0.4 v 3.2 c 0,0.22091 0.17909,0.4 0.4,0.4 h 7.2 c 0.22091,0 0.4,0.17909 0.4,0.4 v 3.2 c 0,0.22091 -0.17909,0.4 -0.4,0.4 h -3.2 c -0.22091,0 -0.4,0.17909 -0.4,0.4 v 3.2 c 0,0.22091 0.17909,0.4 0.4,0.4 h 3.2 c 0.22091,0 0.4,0.17909 0.4,0.4 v 7.2 c 0,0.22091 -0.17909,0.4 -0.4,0.4 h -3.2 c -0.22091,0 -0.4,0.17909 -0.4,0.4 v 3.2 c 0,0.22091 0.17909,0.4 0.4,0.4 h 3.2 c 0.22091,0 0.4,0.17909 0.4,0.4 v 3.2 c 0,0.22091 -0.17909,0.4 -0.4,0.4 h -3.2 c -0.22091,0 -0.4,0.17909 -0.4,0.4 v 3.2 c 0,0.22091 0.17909,0.4 0.4,0.4 h 3.2 c 0.22091,0 0.4,0.17909 0.4,0.4 v 3.2 c 0,0.22091 -0.17909,0.4 -0.4,0.4 h -3.2 c -0.22091,0 -0.4,0.17909 -0.4,0.4 v 7.2 c 0,0.22091 -0.17909,0.4 -0.4,0.4 z m -8,0 h -7.2 c -0.220914,0 -0.4,-0.17909 -0.4,-0.4 v -3.2 c 0,-0.22091 -0.179086,-0.4 -0.4,-0.4 h -7.2 c -0.220914,0 -0.4,-0.17909 -0.4,-0.4 v -3.2 c 0,-0.22091 0.179086,-0.4 0.4,-0.4 h 3.2 c 0.220914,0 0.4,-0.17909 0.4,-0.4 v -7.2 C 84,132.17909 83.820914,132 83.6,132 H 80.4 C 80.179086,132 80,131.82091 80,131.6 V 128 h 3.6 c 0.220914,0 0.4,-0.17909 0.4,-0.4 v -7.2 c 0,-0.22091 -0.179086,-0.4 -0.4,-0.4 h -3.2 c -0.220914,0 -0.4,-0.17909 -0.4,-0.4 v -3.2 c 0,-0.22091 0.179086,-0.4 0.4,-0.4 h 3.2 c 0.220914,0 0.4,-0.17909 0.4,-0.4 v -3.2 c 0,-0.22091 0.179086,-0.4 0.4,-0.4 h 3.2 c 0.220914,0 0.4,0.17909 0.4,0.4 v 7.2 c 0,0.22091 0.179086,0.4 0.4,0.4 H 92 v 12 h -3.6 c -0.220914,0 -0.4,0.17909 -0.4,0.4 v 7.2 c 0,0.22091 0.179086,0.4 0.4,0.4 H 96 v 7.6 c 0,0.22091 -0.179086,0.4 -0.4,0.4 z m -20,0 H 72.4 C 72.179086,148 72,147.82091 72,147.6 V 144 h 3.6 c 0.220914,0 0.4,0.17909 0.4,0.4 v 3.2 c 0,0.22091 -0.179086,0.4 -0.4,0.4 z m -8,0 H 48.4 c -0.220914,0 -0.4,-0.17909 -0.4,-0.4 v -7.2 c 0,-0.22091 0.179086,-0.4 0.4,-0.4 h 3.2 c 0.220914,0 0.4,0.17909 0.4,0.4 v 3.2 c 0,0.22091 0.179086,0.4 0.4,0.4 h 7.2 c 0.220914,0 0.4,-0.17909 0.4,-0.4 V 140 h 3.6 c 0.220914,0 0.4,0.17909 0.4,0.4 v 3.2 c 0,0.22091 0.179086,0.4 0.4,0.4 H 68 v 3.6 c 0,0.22091 -0.179086,0.4 -0.4,0.4 z m -24,0 H 16.4 c -0.220914,0 -0.4,-0.17909 -0.4,-0.4 v -27.2 c 0,-0.22091 0.179086,-0.4 0.4,-0.4 h 27.2 c 0.220914,0 0.4,0.17909 0.4,0.4 v 27.2 c 0,0.22091 -0.179086,0.4 -0.4,0.4 z m 28,-4 H 68 v -7.6 c 0,-0.22091 0.179086,-0.4 0.4,-0.4 h 3.2 c 0.220914,0 0.4,0.17909 0.4,0.4 V 144 Z M 40,143.6 V 124.4 C 40,124.17909 39.820914,124 39.6,124 H 20.4 c -0.220914,0 -0.4,0.17909 -0.4,0.4 v 19.2 c 0,0.22091 0.179086,0.4 0.4,0.4 h 19.2 c 0.220914,0 0.4,-0.17909 0.4,-0.4 z M 147.6,140 h -3.2 c -0.22091,0 -0.4,-0.17909 -0.4,-0.4 v -3.2 c 0,-0.22091 0.17909,-0.4 0.4,-0.4 h 3.2 c 0.22091,0 0.4,0.17909 0.4,0.4 v 3.2 c 0,0.22091 -0.17909,0.4 -0.4,0.4 z m -8,0 h -3.2 c -0.22091,0 -0.4,-0.17909 -0.4,-0.4 v -7.2 c 0,-0.22091 0.17909,-0.4 0.4,-0.4 h 3.6 v 7.6 c 0,0.22091 -0.17909,0.4 -0.4,0.4 z m -80,0 H 56.4 C 56.179086,140 56,139.82091 56,139.6 V 136 h 3.6 c 0.220914,0 0.4,0.17909 0.4,0.4 v 3.6 z m -24,0 H 24.4 c -0.220914,0 -0.4,-0.17909 -0.4,-0.4 v -11.2 c 0,-0.22091 0.179086,-0.4 0.4,-0.4 h 11.2 c 0.220914,0 0.4,0.17909 0.4,0.4 v 11.2 c 0,0.22091 -0.179086,0.4 -0.4,0.4 z m 60,-4 H 92.4 C 92.179086,136 92,135.82091 92,135.6 V 132 h 3.6 c 0.220914,0 0.4,0.17909 0.4,0.4 v 3.6 z m -40,0 h -7.2 c -0.220914,0 -0.4,-0.17909 -0.4,-0.4 v -3.2 c 0,-0.22091 0.179086,-0.4 0.4,-0.4 H 56 v 4 z m 88,-4 H 140 v -11.6 c 0,-0.22091 0.17909,-0.4 0.4,-0.4 h 3.6 v 3.6 c 0,0.22091 0.17909,0.4 0.4,0.4 h 3.2 c 0.22091,0 0.4,0.17909 0.4,0.4 v 3.2 c 0,0.22091 -0.17909,0.4 -0.4,0.4 h -3.2 c -0.22091,0 -0.4,0.17909 -0.4,0.4 v 3.2 c 0,0.22091 -0.17909,0.4 -0.4,0.4 z m -68,0 h -7.2 c -0.220914,0 -0.4,-0.17909 -0.4,-0.4 v -3.2 C 68,128.17909 67.820914,128 67.6,128 H 64 v -7.6 C 64,120.17909 63.820914,120 63.6,120 H 60 v -4 h 3.6 c 0.220914,0 0.4,-0.17909 0.4,-0.4 v -3.2 c 0,-0.22091 0.179086,-0.4 0.4,-0.4 h 3.2 c 0.220914,0 0.4,0.17909 0.4,0.4 v 11.2 c 0,0.22091 0.179086,0.4 0.4,0.4 h 11.2 c 0.220914,0 0.4,0.17909 0.4,0.4 v 3.6 h -3.6 c -0.220914,0 -0.4,0.17909 -0.4,0.4 v 3.2 c 0,0.22091 -0.179086,0.4 -0.4,0.4 z m -12,0 H 56 v -3.6 C 56,128.17909 55.820914,128 55.6,128 H 52.4 C 52.179086,128 52,127.82091 52,127.6 V 124 h 3.6 c 0.220914,0 0.4,-0.17909 0.4,-0.4 v -3.2 c 0,-0.22091 0.179086,-0.4 0.4,-0.4 H 60 v 7.6 c 0,0.22091 0.179086,0.4 0.4,0.4 H 64 v 3.6 c 0,0.22091 -0.179086,0.4 -0.4,0.4 z m 64.4,-4.4 v -11.2 c 0,-0.22091 -0.17909,-0.4 -0.4,-0.4 h -11.2 c -0.22091,0 -0.4,0.17909 -0.4,0.4 v 11.2 c 0,0.22091 0.17909,0.4 0.4,0.4 h 11.2 c 0.22091,0 0.4,-0.17909 0.4,-0.4 z m -4.4,-3.6 h -3.2 c -0.22091,0 -0.4,-0.17909 -0.4,-0.4 v -3.2 c 0,-0.22091 0.17909,-0.4 0.4,-0.4 h 3.2 c 0.22091,0 0.4,0.17909 0.4,0.4 v 3.2 c 0,0.22091 -0.17909,0.4 -0.4,0.4 z m -72,0 h -3.2 c -0.220914,0 -0.4,-0.17909 -0.4,-0.4 v -7.2 C 48,116.17909 47.820914,116 47.6,116 H 32.4 C 32.179086,116 32,115.82091 32,115.6 V 112 h 3.6 c 0.220914,0 0.4,-0.17909 0.4,-0.4 v -3.2 c 0,-0.22091 0.179086,-0.4 0.4,-0.4 H 40 v 3.6 c 0,0.22091 0.179086,0.4 0.4,0.4 h 7.2 c 0.220914,0 0.4,-0.17909 0.4,-0.4 v -3.2 c 0,-0.22091 0.179086,-0.4 0.4,-0.4 h 7.2 c 0.220914,0 0.4,0.17909 0.4,0.4 v 3.6 h -3.6 c -0.220914,0 -0.4,0.17909 -0.4,0.4 V 124 Z m 96,-4 H 144 v -3.6 c 0,-0.22091 0.17909,-0.4 0.4,-0.4 h 3.2 c 0.22091,0 0.4,0.17909 0.4,0.4 v 3.2 c 0,0.22091 -0.17909,0.4 -0.4,0.4 z m -52,0 H 92 v -3.6 c 0,-0.22091 0.179086,-0.4 0.4,-0.4 h 3.2 c 0.220914,0 0.4,0.17909 0.4,0.4 v 3.6 z m -36,-4 H 56.4 C 56.179086,116 56,115.82091 56,115.6 V 112 h 3.6 c 0.220914,0 0.4,0.17909 0.4,0.4 v 3.6 z m -40,0 h -3.2 c -0.220914,0 -0.4,-0.17909 -0.4,-0.4 v -3.2 c 0,-0.22091 0.179086,-0.4 0.4,-0.4 H 20 v 3.6 c 0,0.22091 -0.179086,0.4 -0.4,0.4 z m 128,-4 h -7.2 c -0.22091,0 -0.4,-0.17909 -0.4,-0.4 v -3.2 c 0,-0.22091 0.17909,-0.4 0.4,-0.4 h 3.2 c 0.22091,0 0.4,-0.17909 0.4,-0.4 V 100 h 3.6 c 0.22091,0 0.4,0.17909 0.4,0.4 v 11.2 c 0,0.22091 -0.17909,0.4 -0.4,0.4 z m -72,0 h -3.2 c -0.220914,0 -0.4,-0.17909 -0.4,-0.4 v -3.2 c 0,-0.22091 0.179086,-0.4 0.4,-0.4 h 3.2 c 0.220914,0 0.4,0.17909 0.4,0.4 v 3.2 c 0,0.22091 -0.179086,0.4 -0.4,0.4 z m -44,0 H 20 v -3.6 c 0,-0.22091 -0.179086,-0.4 -0.4,-0.4 h -3.2 c -0.220914,0 -0.4,-0.17909 -0.4,-0.4 v -3.2 c 0,-0.22091 0.179086,-0.4 0.4,-0.4 h 3.2 c 0.220914,0 0.4,-0.17909 0.4,-0.4 V 96.4 C 20,96.179086 20.179086,96 20.4,96 h 7.2 C 27.820914,96 28,95.820914 28,95.6 V 92.4 C 28,92.179086 27.820914,92 27.6,92 H 24.4 C 24.179086,92 24,91.820914 24,91.6 V 88.4 C 24,88.179086 24.179086,88 24.4,88 h 7.2 C 31.820914,88 32,87.820914 32,87.6 V 84 h 8 v 3.6 c 0,0.220914 0.179086,0.4 0.4,0.4 H 44 v 4 H 32.4 C 32.179086,92 32,92.179086 32,92.4 v 11.2 c 0,0.22091 -0.179086,0.4 -0.4,0.4 h -3.2 c -0.220914,0 -0.4,-0.17909 -0.4,-0.4 v -3.2 c 0,-0.22091 -0.179086,-0.4 -0.4,-0.4 h -3.2 c -0.220914,0 -0.4,0.17909 -0.4,0.4 v 7.2 c 0,0.22091 0.179086,0.4 0.4,0.4 h 7.2 c 0.220914,0 0.4,0.17909 0.4,0.4 v 3.6 z m 12,-4 H 40 v -4 h 3.6 c 0.220914,0 0.4,0.17909 0.4,0.4 v 3.2 c 0,0.22091 -0.179086,0.4 -0.4,0.4 z m 96,-4 H 136 v -4 h 4 v 3.6 c 0,0.22091 -0.17909,0.4 -0.4,0.4 z m -52,0 h -3.2 c -0.220914,0 -0.4,-0.17909 -0.4,-0.4 v -3.2 c 0,-0.22091 0.179086,-0.4 0.4,-0.4 h 3.2 c 0.220914,0 0.4,0.17909 0.4,0.4 v 3.2 c 0,0.22091 -0.179086,0.4 -0.4,0.4 z m -12,0 h -3.2 c -0.220914,0 -0.4,-0.17909 -0.4,-0.4 v -3.2 c 0,-0.22091 0.179086,-0.4 0.4,-0.4 h 3.2 c 0.220914,0 0.4,0.17909 0.4,0.4 v 3.2 c 0,0.22091 -0.179086,0.4 -0.4,0.4 z m -12,0 H 52.4 C 52.179086,104 52,103.82091 52,103.6 V 96.4 C 52,96.179086 51.820914,96 51.6,96 H 48.4 C 48.179086,96 48,96.179086 48,96.4 v 3.2 c 0,0.220914 -0.179086,0.4 -0.4,0.4 H 40 V 96.4 C 40,96.179086 40.179086,96 40.4,96 h 3.2 C 43.820914,96 44,95.820914 44,95.6 V 92 H 55.6 C 55.820914,92 56,91.820914 56,91.6 V 88.4 C 56,88.179086 56.179086,88 56.4,88 h 7.2 C 63.820914,88 64,87.820914 64,87.6 V 80 h 7.6 c 0.220914,0 0.4,0.179086 0.4,0.4 v 3.2 c 0,0.220914 0.179086,0.4 0.4,0.4 h 3.2 c 0.220914,0 0.4,0.179086 0.4,0.4 V 95.6 C 76,95.820914 75.820914,96 75.6,96 H 72.4 C 72.179086,96 72,95.820914 72,95.6 V 88.4 C 72,88.179086 71.820914,88 71.6,88 H 68.4 C 68.179086,88 68,88.179086 68,88.4 v 7.2 C 68,95.820914 67.820914,96 67.6,96 H 64.4 C 64.179086,96 64,95.820914 64,95.6 V 92.4 C 64,92.179086 63.820914,92 63.6,92 H 60.4 C 60.179086,92 60,92.179086 60,92.4 v 3.2 C 60,95.820914 59.820914,96 59.6,96 H 56.4 C 56.179086,96 56,96.179086 56,96.4 v 3.2 c 0,0.220914 0.179086,0.4 0.4,0.4 h 7.2 c 0.220914,0 0.4,0.17909 0.4,0.4 v 3.2 c 0,0.22091 -0.179086,0.4 -0.4,0.4 z m -24,0 h -3.2 c -0.220914,0 -0.4,-0.17909 -0.4,-0.4 v -3.2 c 0,-0.22091 0.179086,-0.4 0.4,-0.4 H 40 v 4 z m 104,-4 H 140 v -3.6 c 0,-0.220914 0.17909,-0.4 0.4,-0.4 h 3.2 c 0.22091,0 0.4,0.179086 0.4,0.4 v 3.6 z m -40,0 H 96.4 C 96.179086,100 96,99.820914 96,99.6 V 96.4 C 96,96.179086 96.179086,96 96.4,96 h 3.2 c 0.220914,0 0.4,-0.179086 0.4,-0.4 V 92.4 C 100,92.179086 99.820914,92 99.6,92 H 96.4 C 96.179086,92 96,91.820914 96,91.6 V 84 h 4 v 3.6 c 0,0.220914 0.17909,0.4 0.4,0.4 h 3.2 c 0.22091,0 0.4,0.179086 0.4,0.4 v 11.2 c 0,0.220914 -0.17909,0.4 -0.4,0.4 z m -16,-4 H 84.4 C 84.179086,96 84,95.820914 84,95.6 V 84.4 C 84,84.179086 83.820914,84 83.6,84 H 80.4 C 80.179086,84 80,83.820914 80,83.6 V 80.4 C 80,80.179086 79.820914,80 79.6,80 H 76.4 C 76.179086,80 76,79.820914 76,79.6 V 76 h 7.6 C 83.820914,76 84,75.820914 84,75.6 V 72.4 C 84,72.179086 83.820914,72 83.6,72 H 80.4 C 80.179086,72 80,71.820914 80,71.6 V 68.4 C 80,68.179086 80.179086,68 80.4,68 h 3.2 C 83.820914,68 84,67.820914 84,67.6 V 64 h 4 v 11.6 c 0,0.220914 0.179086,0.4 0.4,0.4 h 3.2 c 0.220914,0 0.4,0.179086 0.4,0.4 V 80 H 88.4 C 88.179086,80 88,80.179086 88,80.4 v 15.2 c 0,0.220914 -0.179086,0.4 -0.4,0.4 z m 60,-4 h -7.2 C 140.17909,92 140,91.820914 140,91.6 V 88 h 7.6 c 0.22091,0 0.4,0.179086 0.4,0.4 v 3.2 c 0,0.220914 -0.17909,0.4 -0.4,0.4 z m -96,-4 H 44 v -4 h 3.6 C 47.820914,84 48,83.820914 48,83.6 V 80.4 C 48,80.179086 48.179086,80 48.4,80 h 3.2 c 0.220914,0 0.4,0.179086 0.4,0.4 v 7.2 c 0,0.220914 -0.179086,0.4 -0.4,0.4 z m -32,0 H 16.4 C 16.179086,88 16,87.820914 16,87.6 V 80.4 C 16,80.179086 16.179086,80 16.4,80 H 20 v 7.6 c 0,0.220914 -0.179086,0.4 -0.4,0.4 z m 128,-4 h -3.2 C 144.17909,84 144,83.820914 144,83.6 V 80 h 3.6 c 0.22091,0 0.4,0.179086 0.4,0.4 v 3.2 c 0,0.220914 -0.17909,0.4 -0.4,0.4 z m -16,0 H 128 v -7.6 c 0,-0.220914 0.17909,-0.4 0.4,-0.4 h 3.2 c 0.22091,0 0.4,-0.179086 0.4,-0.4 v -3.2 c 0,-0.220914 -0.17909,-0.4 -0.4,-0.4 h -3.2 c -0.22091,0 -0.4,-0.179086 -0.4,-0.4 v -3.2 c 0,-0.220914 0.17909,-0.4 0.4,-0.4 h 3.2 c 0.22091,0 0.4,-0.179086 0.4,-0.4 v -3.2 c 0,-0.220914 0.17909,-0.4 0.4,-0.4 h 3.2 c 0.22091,0 0.4,0.179086 0.4,0.4 v 3.2 c 0,0.220914 0.17909,0.4 0.4,0.4 h 7.2 c 0.22091,0 0.4,-0.179086 0.4,-0.4 v -3.2 c 0,-0.220914 -0.17909,-0.4 -0.4,-0.4 h -3.2 c -0.22091,0 -0.4,-0.179086 -0.4,-0.4 v -3.2 c 0,-0.220914 0.17909,-0.4 0.4,-0.4 h 3.2 c 0.22091,0 0.4,-0.179086 0.4,-0.4 V 52 h 3.6 c 0.22091,0 0.4,0.179086 0.4,0.4 v 19.2 c 0,0.220914 -0.17909,0.4 -0.4,0.4 h -3.2 c -0.22091,0 -0.4,0.179086 -0.4,0.4 V 80 h -3.6 c -0.22091,0 -0.4,-0.179086 -0.4,-0.4 v -7.2 c 0,-0.220914 -0.17909,-0.4 -0.4,-0.4 h -3.2 c -0.22091,0 -0.4,0.179086 -0.4,0.4 v 7.2 c 0,0.220914 -0.17909,0.4 -0.4,0.4 h -3.2 c -0.22091,0 -0.4,0.179086 -0.4,0.4 V 84 Z m -28,0 H 100 v -7.6 c 0,-0.220914 0.17909,-0.4 0.4,-0.4 h 3.6 v 7.6 c 0,0.220914 -0.17909,0.4 -0.4,0.4 z m -8,0 H 92.4 C 92.179086,84 92,83.820914 92,83.6 V 80 h 3.6 c 0.220914,0 0.4,0.179086 0.4,0.4 V 84 Z m -52,0 H 40 v -4 h 3.6 c 0.220914,0 0.4,0.179086 0.4,0.4 V 84 Z m -12,0 H 28.4 C 28.179086,84 28,83.820914 28,83.6 V 80.4 C 28,80.179086 27.820914,80 27.6,80 H 20 v -8 h 3.6 C 23.820914,72 24,71.820914 24,71.6 V 68 h 3.6 c 0.220914,0 0.4,0.179086 0.4,0.4 v 3.2 c 0,0.220914 0.179086,0.4 0.4,0.4 H 36 v 3.6 c 0,0.220914 0.179086,0.4 0.4,0.4 H 40 v 4 H 32.4 C 32.179086,80 32,80.179086 32,80.4 V 84 Z m 32,-4 H 56.4 C 56.179086,80 56,79.820914 56,79.6 V 76 h 3.6 C 59.820914,76 60,75.820914 60,75.6 V 68.4 C 60,68.179086 59.820914,68 59.6,68 H 56.4 C 56.179086,68 56,67.820914 56,67.6 V 64.4 C 56,64.179086 55.820914,64 55.6,64 H 52.4 C 52.179086,64 52,64.179086 52,64.4 v 7.2 c 0,0.220914 0.179086,0.4 0.4,0.4 h 3.2 c 0.220914,0 0.4,0.179086 0.4,0.4 V 76 H 48.4 C 48.179086,76 48,75.820914 48,75.6 V 72.4 C 48,72.179086 47.820914,72 47.6,72 H 44 v -4 h 3.6 C 47.820914,68 48,67.820914 48,67.6 V 60 H 59.6 C 59.820914,60 60,59.820914 60,59.6 V 48.4 C 60,48.179086 59.820914,48 59.6,48 H 56.4 C 56.179086,48 56,47.820914 56,47.6 V 36.4 C 56,36.179086 55.820914,36 55.6,36 H 52.4 C 52.179086,36 52,36.179086 52,36.4 V 47.6 C 52,47.820914 51.820914,48 51.6,48 H 48 V 32.4 C 48,32.179086 48.179086,32 48.4,32 h 3.2 C 51.820914,32 52,31.820914 52,31.6 V 28 h 3.6 c 0.220914,0 0.4,0.179086 0.4,0.4 v 3.2 c 0,0.220914 0.179086,0.4 0.4,0.4 h 3.2 c 0.220914,0 0.4,0.179086 0.4,0.4 v 11.2 c 0,0.220914 0.179086,0.4 0.4,0.4 H 64 v 3.6 c 0,0.220914 0.179086,0.4 0.4,0.4 H 68 v 3.6 c 0,0.220914 0.179086,0.4 0.4,0.4 H 72 v 3.6 c 0,0.220914 0.179086,0.4 0.4,0.4 h 3.2 c 0.220914,0 0.4,0.179086 0.4,0.4 V 60 H 72.4 C 72.179086,60 72,60.179086 72,60.4 V 64 H 64.4 C 64.179086,64 64,64.179086 64,64.4 V 80 Z m 12,-4 H 68.4 C 68.179086,76 68,75.820914 68,75.6 V 68.4 C 68,68.179086 68.179086,68 68.4,68 h 3.2 C 71.820914,68 72,67.820914 72,67.6 V 64 h 4 v 12 z m -32,0 H 40 v -4 h 4 v 3.6 c 0,0.220914 -0.179086,0.4 -0.4,0.4 z m 60,-4 h -3.2 C 100.17909,72 100,71.820914 100,71.6 V 64.4 C 100,64.179086 99.820914,64 99.6,64 H 96.4 C 96.179086,64 96,63.820914 96,63.6 V 60 h 7.6 c 0.22091,0 0.4,0.179086 0.4,0.4 V 72 Z m -8,0 H 92.4 C 92.179086,72 92,71.820914 92,71.6 V 68.4 C 92,68.179086 92.179086,68 92.4,68 h 3.2 c 0.220914,0 0.4,0.179086 0.4,0.4 v 3.2 c 0,0.220914 -0.179086,0.4 -0.4,0.4 z m -56,0 H 36 v -4 h 4 v 4 z m -20,0 H 16.4 C 16.179086,72 16,71.820914 16,71.6 V 68.4 C 16,68.179086 16.179086,68 16.4,68 H 20 v 4 z m 24,-4 H 40 V 64.4 C 40,64.179086 40.179086,64 40.4,64 h 3.2 c 0.220914,0 0.4,0.179086 0.4,0.4 V 68 Z m -8,0 H 32.4 C 32.179086,68 32,67.820914 32,67.6 V 64.4 C 32,64.179086 31.820914,64 31.6,64 H 24 V 60.4 C 24,60.179086 23.820914,60 23.6,60 H 20.4 C 20.179086,60 20,59.820914 20,59.6 V 56 h 3.6 C 23.820914,56 24,55.820914 24,55.6 V 52 h 4 v 3.6 c 0,0.220914 0.179086,0.4 0.4,0.4 h 3.2 c 0.220914,0 0.4,0.179086 0.4,0.4 v 3.2 c 0,0.220914 0.179086,0.4 0.4,0.4 H 36 v 8 z m -12,0 H 20 V 64.4 C 20,64.179086 20.179086,64 20.4,64 H 24 v 4 z m 104,-4 H 124 v -8 h 7.6 c 0.22091,0 0.4,-0.179086 0.4,-0.4 V 52 h 4 v 7.6 c 0,0.220914 -0.17909,0.4 -0.4,0.4 h -7.2 c -0.22091,0 -0.4,0.179086 -0.4,0.4 v 3.2 c 0,0.220914 -0.17909,0.4 -0.4,0.4 z m -36,0 H 88 v -4 h 4 v 3.6 c 0,0.220914 -0.179086,0.4 -0.4,0.4 z m -8,0 H 76 v -4 h 3.6 C 79.820914,60 80,59.820914 80,59.6 V 56.4 C 80,56.179086 80.179086,56 80.4,56 h 3.2 C 83.820914,56 84,55.820914 84,55.6 V 52.4 C 84,52.179086 84.179086,52 84.4,52 h 3.2 c 0.220914,0 0.4,0.179086 0.4,0.4 V 60 H 84.4 C 84.179086,60 84,60.179086 84,60.4 V 64 Z m 12,-4 H 92 V 56.4 C 92,56.179086 92.179086,56 92.4,56 h 3.2 c 0.220914,0 0.4,0.179086 0.4,0.4 V 60 Z m -48,0 H 36 V 56.4 C 36,56.179086 36.179086,56 36.4,56 H 48 v 4 z m 76,-4 H 112.4 C 112.17909,56 112,55.820914 112,55.6 V 52 h 7.6 c 0.22091,0 0.4,-0.179086 0.4,-0.4 v -3.2 c 0,-0.220914 0.17909,-0.4 0.4,-0.4 h 11.2 c 0.22091,0 0.4,0.179086 0.4,0.4 V 52 h -7.6 c -0.22091,0 -0.4,0.179086 -0.4,0.4 V 56 Z m -16,0 h -7.2 C 100.17909,56 100,55.820914 100,55.6 V 52.4 C 100,52.179086 99.820914,52 99.6,52 H 96.4 C 96.179086,52 96,51.820914 96,51.6 V 48.4 C 96,48.179086 96.179086,48 96.4,48 h 3.2 c 0.220914,0 0.4,-0.179086 0.4,-0.4 V 44 h 4 v 7.6 c 0,0.220914 0.17909,0.4 0.4,0.4 h 3.6 v 3.6 c 0,0.220914 -0.17909,0.4 -0.4,0.4 z m -52,0 H 48 v -4 h 7.6 c 0.220914,0 0.4,0.179086 0.4,0.4 v 3.2 c 0,0.220914 -0.179086,0.4 -0.4,0.4 z m -36,0 H 16.4 C 16.179086,56 16,55.820914 16,55.6 V 48.4 C 16,48.179086 16.179086,48 16.4,48 h 7.2 c 0.220914,0 0.4,0.179086 0.4,0.4 V 52 H 20.4 C 20.179086,52 20,52.179086 20,52.4 V 56 Z m 124,-4 H 136 v -3.6 c 0,-0.220914 0.17909,-0.4 0.4,-0.4 h 7.2 c 0.22091,0 0.4,0.179086 0.4,0.4 V 52 Z m -32,0 H 108 v -3.6 c 0,-0.220914 0.17909,-0.4 0.4,-0.4 h 3.6 v 4 z m -36,0 H 72 v -4 h 4 v 3.6 c 0,0.220914 -0.179086,0.4 -0.4,0.4 z m -28,0 H 40.4 C 40.179086,52 40,51.820914 40,51.6 V 48.4 C 40,48.179086 40.179086,48 40.4,48 H 48 v 4 z m -16,0 H 28 V 48.4 C 28,48.179086 28.179086,48 28.4,48 h 3.2 c 0.220914,0 0.4,0.179086 0.4,0.4 v 3.2 c 0,0.220914 -0.179086,0.4 -0.4,0.4 z m 84,-4 H 112 V 36 h 3.6 c 0.22091,0 0.4,0.179086 0.4,0.4 v 11.2 c 0,0.220914 -0.17909,0.4 -0.4,0.4 z m -24,0 H 76 v -4 h 3.6 C 79.820914,44 80,43.820914 80,43.6 V 40.4 C 80,40.179086 79.820914,40 79.6,40 H 76 V 36.4 C 76,36.179086 76.179086,36 76.4,36 h 7.2 c 0.220914,0 0.4,0.179086 0.4,0.4 v 7.2 c 0,0.220914 0.179086,0.4 0.4,0.4 h 3.2 C 87.820914,44 88,43.820914 88,43.6 V 40.4 C 88,40.179086 88.179086,40 88.4,40 H 92 v 7.6 c 0,0.220914 -0.179086,0.4 -0.4,0.4 z m -20,0 H 68 v -4 h 4 v 4 z m 76,-4 H 120.4 C 120.17909,44 120,43.820914 120,43.6 V 16.4 c 0,-0.220914 0.17909,-0.4 0.4,-0.4 h 27.2 c 0.22091,0 0.4,0.179086 0.4,0.4 v 27.2 c 0,0.220914 -0.17909,0.4 -0.4,0.4 z m -40,0 H 104 v -4 h 3.6 c 0.22091,0 0.4,0.179086 0.4,0.4 v 3.2 c 0,0.220914 -0.17909,0.4 -0.4,0.4 z m -8,0 H 96.4 C 96.179086,44 96,43.820914 96,43.6 V 40.4 C 96,40.179086 95.820914,40 95.6,40 H 92 v -4 h 3.6 C 95.820914,36 96,35.820914 96,35.6 V 32.4 C 96,32.179086 95.820914,32 95.6,32 H 92.4 C 92.179086,32 92,32.179086 92,32.4 V 36 H 88.4 C 88.179086,36 88,35.820914 88,35.6 V 32.4 C 88,32.179086 87.820914,32 87.6,32 H 84.4 C 84.179086,32 84,31.820914 84,31.6 V 24 h 4 v 3.6 c 0,0.220914 0.179086,0.4 0.4,0.4 h 3.2 C 91.820914,28 92,27.820914 92,27.6 V 24 h 7.6 c 0.220914,0 0.4,0.179086 0.4,0.4 v 11.2 c 0,0.220914 0.17909,0.4 0.4,0.4 h 3.2 c 0.22091,0 0.4,0.179086 0.4,0.4 V 40 h -3.6 c -0.22091,0 -0.4,0.179086 -0.4,0.4 V 44 Z m -24,0 H 72 V 40.4 C 72,40.179086 72.179086,40 72.4,40 H 76 v 4 z m -8,0 H 64 V 28.4 C 64,28.179086 64.179086,28 64.4,28 H 72 v 3.6 C 72,31.820914 71.820914,32 71.6,32 H 68.4 C 68.179086,32 68,32.179086 68,32.4 V 44 Z m -24,0 H 16.4 C 16.179086,44 16,43.820914 16,43.6 V 16.4 C 16,16.179086 16.179086,16 16.4,16 h 27.2 c 0.220914,0 0.4,0.179086 0.4,0.4 V 43.6 C 44,43.820914 43.820914,44 43.6,44 Z M 144,39.6 V 20.4 c 0,-0.220914 -0.17909,-0.4 -0.4,-0.4 h -19.2 c -0.22091,0 -0.4,0.179086 -0.4,0.4 v 19.2 c 0,0.220914 0.17909,0.4 0.4,0.4 h 19.2 c 0.22091,0 0.4,-0.179086 0.4,-0.4 z m -104,0 V 20.4 C 40,20.179086 39.820914,20 39.6,20 H 20.4 C 20.179086,20 20,20.179086 20,20.4 v 19.2 c 0,0.220914 0.179086,0.4 0.4,0.4 H 39.6 C 39.820914,40 40,39.820914 40,39.6 Z M 139.6,36 H 128.4 C 128.17909,36 128,35.820914 128,35.6 V 24.4 c 0,-0.220914 0.17909,-0.4 0.4,-0.4 h 11.2 c 0.22091,0 0.4,0.179086 0.4,0.4 v 11.2 c 0,0.220914 -0.17909,0.4 -0.4,0.4 z m -28,0 h -3.2 c -0.22091,0 -0.4,-0.179086 -0.4,-0.4 v -3.2 c 0,-0.220914 -0.17909,-0.4 -0.4,-0.4 h -3.2 C 104.17909,32 104,31.820914 104,31.6 V 16.4 c 0,-0.220914 0.17909,-0.4 0.4,-0.4 h 7.2 c 0.22091,0 0.4,0.179086 0.4,0.4 v 3.2 c 0,0.220914 0.17909,0.4 0.4,0.4 h 3.2 c 0.22091,0 0.4,0.179086 0.4,0.4 v 3.2 c 0,0.220914 -0.17909,0.4 -0.4,0.4 h -3.2 c -0.22091,0 -0.4,0.179086 -0.4,0.4 V 36 Z m -76,0 H 24.4 C 24.179086,36 24,35.820914 24,35.6 V 24.4 C 24,24.179086 24.179086,24 24.4,24 h 11.2 c 0.220914,0 0.4,0.179086 0.4,0.4 v 11.2 c 0,0.220914 -0.179086,0.4 -0.4,0.4 z m 44,-8 H 72 V 24.4 C 72,24.179086 72.179086,24 72.4,24 H 80 v 3.6 c 0,0.220914 -0.179086,0.4 -0.4,0.4 z m -28,0 H 48.4 C 48.179086,28 48,27.820914 48,27.6 V 20.4 C 48,20.179086 48.179086,20 48.4,20 h 7.2 C 55.820914,20 56,19.820914 56,19.6 V 16.4 C 56,16.179086 56.179086,16 56.4,16 h 3.2 c 0.220914,0 0.4,0.179086 0.4,0.4 v 7.2 C 60,23.820914 59.820914,24 59.6,24 H 52.4 C 52.179086,24 52,24.179086 52,24.4 V 28 Z m 40,-4 H 88 V 20.4 C 88,20.179086 87.820914,20 87.6,20 H 84 V 16.4 C 84,16.179086 84.179086,16 84.4,16 h 15.2 c 0.220914,0 0.4,0.179086 0.4,0.4 v 3.2 c 0,0.220914 -0.179086,0.4 -0.4,0.4 H 92.4 C 92.179086,20 92,20.179086 92,20.4 V 24 Z m -8,0 H 80 V 20.4 C 80,20.179086 80.179086,20 80.4,20 H 84 v 4 z m -8,-4 H 72.4 C 72.179086,20 72,19.820914 72,19.6 V 16.4 C 72,16.179086 72.179086,16 72.4,16 h 3.2 c 0.220914,0 0.4,0.179086 0.4,0.4 v 3.2 c 0,0.220914 -0.179086,0.4 -0.4,0.4 z"
           id="path950" />
      </g>
    </g>
  </g>
</svg>
